<?xml version="1.0" encoding="UTF-8" standalone="no"?>
<!-- Created with Inkscape (http://www.inkscape.org/) -->

<svg
   xmlns:osb="http://www.openswatchbook.org/uri/2009/osb"
   xmlns:dc="http://purl.org/dc/elements/1.1/"
   xmlns:cc="http://creativecommons.org/ns#"
   xmlns:rdf="http://www.w3.org/1999/02/22-rdf-syntax-ns#"
   xmlns:svg="http://www.w3.org/2000/svg"
   xmlns="http://www.w3.org/2000/svg"
   xmlns:sodipodi="http://sodipodi.sourceforge.net/DTD/sodipodi-0.dtd"
   xmlns:inkscape="http://www.inkscape.org/namespaces/inkscape"
   width="800"
   height="800"
   id="svg2"
   version="1.1"
   inkscape:version="0.48.4 r9939"
   sodipodi:docname="BB.svg">
  <defs
     id="defs4">
    <linearGradient
       id="linearGradient3823"
       osb:paint="solid">
      <stop
         style="stop-color:#0000b5;stop-opacity:1;"
         offset="0"
         id="stop3825" />
    </linearGradient>
    <filter
       inkscape:collect="always"
       id="filter3809"
       color-interpolation-filters="sRGB">
      <feGaussianBlur
         inkscape:collect="always"
         stdDeviation="3.9593924"
         id="feGaussianBlur3811" />
    </filter>
  </defs>
  <sodipodi:namedview
     id="base"
     pagecolor="#ffffff"
     bordercolor="#666666"
     borderopacity="1.0"
     inkscape:pageopacity="0.0"
     inkscape:pageshadow="2"
     inkscape:zoom="0.35"
     inkscape:cx="350"
     inkscape:cy="520"
     inkscape:document-units="px"
     inkscape:current-layer="layer1"
     showgrid="false"
     inkscape:window-width="1855"
     inkscape:window-height="1056"
     inkscape:window-x="65"
     inkscape:window-y="24"
     inkscape:window-maximized="1" />
  <metadata
     id="metadata7">
    <rdf:RDF>
      <cc:Work
         rdf:about="">
        <dc:format>image/svg+xml</dc:format>
        <dc:type
           rdf:resource="http://purl.org/dc/dcmitype/StillImage" />
        <dc:title />
      </cc:Work>
    </rdf:RDF>
  </metadata>
  <g
     inkscape:label="Ebene 1"
     inkscape:groupmode="layer"
     id="layer1"
     transform="translate(0,-252.36218)">
    <path
       style="fill:none;stroke:#000024;stroke-width:44.19145966;stroke-linecap:butt;stroke-linejoin:miter;stroke-miterlimit:4;stroke-opacity:1;stroke-dasharray:none"
       d="m -914.00677,-72.401534 c 1.21514,20.082203 5.55028,38.459128 8.12356,57.868089 1.31265,9.9006426 -1.56417,20.8045276 0,30.636042 -0.6214,6.835721 4.23681,11.092094 5.41571,17.020042 1.24708,6.27076 -1.62191,14.30739 0,20.42402 4.62337,17.43595 5.41569,29.19224 5.41569,51.060101 0,36.9126 9.09721,103.07626 -2.70784,132.7562 -4.38643,11.02824 0.56015,31.92759 -2.70785,44.25208 -3.4054,12.84266 6.267,43.3755 2.70785,61.27211 -2.38632,11.99925 -6.4632,24.92079 -8.12356,37.44405 -2.40378,18.13053 0.17365,36.35265 -2.70785,54.46408 -3.82257,24.02655 3.20712,50.69841 0,74.88814 -2.64652,19.96132 -4.30104,38.64714 -8.12357,57.86809 -4.12508,20.74233 0.11683,46.77487 -2.70785,68.08011 -3.92813,29.62798 -2.70785,61.13668 -2.70785,91.90814 0,64.95413 2.70785,126.66776 2.70785,190.62432 0,14.75065 0,29.50135 0,44.25205 0,1.7944 0.87119,16.4725 0,17.02 -1.61464,1.0149 -3.80106,-1.0148 -5.4157,0 -0.80732,0.5075 0.90261,3.404 0,3.404 -4.69852,0 4.27952,-28.4936 5.4157,-30.636"
       id="path3755"
       inkscape:connector-curvature="0" />
    <path
       style="fill:none;stroke:#000024;stroke-width:43.90842819;stroke-linecap:butt;stroke-linejoin:miter;stroke-miterlimit:4;stroke-opacity:1;stroke-dasharray:none"
       d="m 1504.9762,515.95742 c -5.671,67.42728 -5.4933,135.97297 -5.4933,204.40155 0,18.68186 1.9305,37.50798 0,56.04557 -1.047,10.05344 -4.3777,19.62841 -5.4933,29.67121 -3.4963,31.47433 -2.376,71.4574 2.7466,102.20074 4.6506,27.91075 -1.0733,62.48694 -5.4933,89.01358 -4.9955,29.98023 1.4664,61.96903 -2.7467,92.31043 -0.9519,6.8557 -4.3577,12.9655 -5.4933,19.7808 -2.203,13.2217 -2.7985,26.6236 -5.4933,39.5616 -3.4302,16.4692 2.329,35.9761 0,52.7487 -0.7434,5.354 -4.3798,10.6031 -2.7466,16.484 0.999,3.5973 6.8953,34.5133 5.4933,39.5616 -1.2948,4.6624 -4.1985,8.5248 -5.4933,13.1872 -4.4527,16.0337 -8.3868,51.8678 -5.4933,69.2328 0.4015,2.4096 1.8311,4.3957 2.7466,6.5936 0.9156,3.2968 2.2707,6.4626 2.7467,9.8904 1.0295,7.4148 -1.229,15.7021 0,23.0776 2.6791,16.0785 4.2956,35.249 8.2399,49.452 2.784,10.0246 -3.938,26.811 0,36.2648 3.2774,7.8675 3.2126,18.1614 5.4933,26.3744 0.8686,3.1276 -2.2853,8.0616 0,9.8903 2.409,1.9277 5.831,1.3692 8.24,3.2969 1.096,0.8769 0,14.4838 0,16.4839 0,7.5181 2.6343,23.3474 0,29.6713 -3.2701,7.8503 -8.24,17.0713 -8.24,26.3745 0,7.1781 -2.0804,10.3392 -5.4933,16.484 -0.7182,1.293 -3.6622,4.3957 -2.7466,3.2967 13.7172,-16.4647 9.5313,-27.9244 24.7199,-46.1552"
       id="path3759"
       inkscape:connector-curvature="0" />
    <path
       style="fill:none;stroke:#00c000;stroke-width:100;stroke-linecap:butt;stroke-linejoin:miter;stroke-miterlimit:4;stroke-opacity:1;stroke-dasharray:none"
       d="m -2036.6245,329.16552 c 29.6064,7.46353 63.8068,9.89074 94.2857,2.85714 4.9974,-1.15324 9.2566,-4.70846 14.2857,-5.71428 10.9599,-2.19198 23.2123,-1.01157 34.2857,-2.85715 3.9967,-0.66611 10.289,-5.04816 14.2857,-5.71428 2.8183,-0.46971 5.8609,0.90351 8.5715,0 7.4044,-2.46814 12.2927,-6.6446 20,-8.57143 13.0868,-3.2717 43.4759,5.4049 54.2857,0 9.1051,-4.55256 18.3159,-5.15291 28.5714,-8.57143 11.9536,5.17387 3.3049,-4.50961 5.7143,-5.71428 8.2043,-4.10214 26.5132,1.30264 34.2857,2.85714 21.508,4.3016 60.7898,-6.40341 80,0 6.7166,2.23885 12.8191,4.27811 20,5.71428 18.4825,3.6965 36.222,-0.30694 54.2857,5.71429 14.3843,4.79477 34.5437,-5.61111 48.5715,0 3.1882,1.2753 5.5,4.17862 8.5714,5.71429 5.3034,2.65168 14.3378,-1.8874 20,0 33.2105,11.07017 70.0682,8.57142 105.7143,8.57142 32.8167,0 63.9048,-2.85714 97.1428,-2.85714 7.5849,0 23.9969,-2.47724 31.4286,0 3.2576,1.08588 5.3832,4.43898 8.5714,5.71429 10.3715,4.14859 22.3499,-2.85715 31.4286,-2.85715 0.8001,0 51.2981,-0.13051 51.4286,0 1.5407,1.54075 4.7399,11.42858 -2.8572,11.42858"
       id="path3769"
       inkscape:connector-curvature="0" />
    <path
       style="fill:none;stroke:#0000cf;stroke-width:55.84735489;stroke-linecap:butt;stroke-linejoin:miter;stroke-miterlimit:4;stroke-opacity:1;stroke-dasharray:none"
       d="m -735.34012,734.80563 c -54.62949,-5.31762 -100.88963,22.59449 -154.45662,4.86794 -2.98316,-0.9872 -8.9477,-0.89224 -12.25846,-1.62265 -6.43332,-1.41929 -9.18239,-4.66131 -14.71016,-6.49058 -1.4619,-0.48377 -4.17243,0.96756 -4.90339,0 -0.73095,-0.96756 0.73096,-2.27773 0,-3.24529 -0.18583,-0.24598 -27.9889,-20.62068 -29.4203,-21.09437 -9.00757,-2.98081 -22.01259,-9.72714 -31.87201,-11.3585 -1.58566,-0.26237 -3.54343,0.60006 -4.90337,0 -1.52048,-0.67088 -1.15954,-2.39008 -2.45171,-3.24528 -0.80356,-0.53184 -22.70646,-5.08013 -26.96856,-6.49059 -3.74,-1.23762 -6.1503,-3.65791 -9.8068,-4.86792 -2.5721,-0.85116 -10.3948,-0.38917 -12.2585,-1.62265 -8.5259,-5.64284 -25.9886,-8.43789 -39.2271,-11.3585 -3.9931,-0.88095 -7.6133,-3.33074 -12.2584,-4.86794 -2.5722,-0.85119 -10.3016,1.29513 -12.2585,0 -4.6414,-3.07188 -11.8039,-1.9531 -19.6135,-3.24528 -3.5457,-0.58666 -6.3396,-2.48037 -9.8068,-3.24529 -15.4161,-3.40103 -27.8775,-3.54605 -41.6788,-8.11321 -3.2689,-1.08177 -8.9895,1.08175 -12.2584,0 -0.731,-0.2419 0.5778,-1.24019 0,-1.62265 -1.1334,-0.75009 -5.8748,0.48986 -7.3551,0 -3.5397,-1.17138 -6.267,-2.07391 -9.8068,-3.24529 -2.6151,-0.86541 -7.1916,0.86542 -9.8067,0 -9.6289,-3.1864 -17.5319,-1.74508 -26.9687,-4.86793 -3.2689,-1.08176 -8.9895,1.08176 -12.2584,0 -4.8867,-1.61711 -9.8235,-1.62818 -14.7102,-3.24528 -2.5721,-0.8512 -10.3016,1.29513 -12.2584,0 -0.5779,-0.38246 0.5778,-1.24019 0,-1.62265 -2.4517,-1.62265 -12.2585,1.62265 -14.7102,0 -0.5779,-0.38246 0.5779,-1.24018 0,-1.62265 -2.0104,-1.33056 -16.197,-0.49204 -19.6135,-1.62264 -1.126,-0.3726 -24.1162,2.98004 -24.517,3.24529 -0.5778,0.38246 0.5779,1.24019 0,1.62265 -0.9379,0.62078 -11.3985,0 -12.2584,0 -1.6345,0 -3.2689,0 -4.9034,0 0,0.54088 0.7309,1.38075 0,1.62264 -8.524,2.82079 -22.7343,-2.01592 -31.872,0 -5.7967,1.27884 -8.587,1.62264 -14.7102,1.62264 -1.4961,0 -8.8515,-0.63224 -9.8067,0 -0.5779,0.38246 0.7309,1.38076 0,1.62264 -3.3589,1.11154 -8.8745,0.5028 -12.2585,1.62265 -2.0675,0.68416 -2.8359,2.56112 -4.9034,3.24529 -2.6151,0.86541 -7.1916,-0.86542 -9.8067,0 -6.3289,2.09435 -8.3814,2.77356 -14.7102,4.86793 -1.4803,0.48985 -6.2218,-0.75009 -7.3551,0 -6.3359,4.19338 -14.1042,9.3348 -19.6135,12.98114 -0.8798,0.58229 -2.0602,4.60884 -4.9034,6.49059 -1.7336,1.14737 1.0964,3.41659 0,4.86792 -0.3655,0.48378 -1.6345,0 -2.4517,0 -0.8172,0.54089 -1.9348,0.93848 -2.4517,1.62265 -4.2711,5.65363 -0.7828,3.76339 -7.3551,8.11321 -1.2258,0.81133 1.2259,4.05662 0,4.86794 -3.6928,2.44406 -6.9216,9.44902 -7.355,9.73586 -0.532,0.35208 -4.6644,1.30628 -4.9034,1.62264 -0.731,0.96756 0.7309,2.27773 0,3.24529 -0.3655,0.48378 -1.7208,-0.24189 -2.4517,0 -3.6133,1.19572 -4.9089,4.87158 -7.3551,6.49058 -1.2259,0.81132 -6.1292,-0.81133 -7.3551,0 -1.6505,1.09238 -1.2931,2.05057 -4.9034,3.24528 -7.5828,2.50935 -28.1221,0 -36.7753,0 -2.3772,0 -21.3416,0.95792 -22.0653,0 -1.1007,-1.45701 0.4997,-5.62929 2.4517,-6.49058 3.3999,-1.50013 8.2943,0.65592 12.2585,0 4.2695,-0.70643 8.1723,-2.16351 12.2585,-3.24528"
       id="path3828"
       inkscape:connector-curvature="0" />
    <path
       style="fill:none;stroke:#000000;stroke-width:50;stroke-linecap:butt;stroke-linejoin:miter;stroke-miterlimit:4;stroke-opacity:1;stroke-dasharray:none"
       d="m 737.36789,575.05411 c -0.39989,-29.3443 -19.55867,-49.4431 -24.08066,-75.6798 -0.32446,-1.8825 0.5983,-4.0858 0,-5.8215 -2.02177,-5.8652 -7.29179,-12.1618 -10.0336,-17.4645 -5.32079,-10.2905 -11.55699,-24.0581 -16.05378,-34.9291 -4.89634,-11.837 1.59172,-6.4235 -6.02016,-17.4646 -3.41077,-4.9473 -8.27377,-7.2723 -12.04033,-11.643 -5.0056,-5.8085 -20.54098,-25.1726 -24.08066,-32.0184 -0.89743,-1.7356 -0.81014,-4.5198 -2.00672,-5.8215 -2.88174,-3.135 -7.03641,-2.9232 -10.03361,-5.8215 -2.3613,-2.2834 -3.74981,-6.2624 -6.02016,-8.7323 -10.46807,-11.388 -26.33039,-13.5305 -38.12771,-20.3753 -0.87832,-0.5096 -1.33782,-1.9405 -2.00672,-2.9108 -3.34454,-1.9405 -6.57003,-4.3861 -10.03361,-5.8215 -4.45084,-1.8445 -4.00011,2.9301 -8.02689,-2.9107 -1.05763,-1.5341 -0.81014,-4.5198 -2.00672,-5.8215 -2.99171,-3.2547 -16.5456,-9.4457 -18.06049,-11.6431 -3.8102,-5.5267 -8.06762,-11.6627 -14.04705,-14.5538 -1.90375,-0.9204 -4.07336,0.706 -6.02017,0 -7.97734,-2.8928 -16.20554,-13.65689 -24.08066,-17.46449 -5.36887,-2.5959 -12.50813,-0.8974 -18.06049,-2.9108 -3.63205,1.7544 -3.73215,-4.7152 -6.02016,-5.8215 -2.53833,-1.2273 -5.43115,0.9413 -8.02689,0 -15.37319,-5.5747 -60.94626,-10.8449 -78.26214,-5.8215 -14.46429,4.1961 -29.84497,11.537 -44.14788,17.4645 -12.1784,5.04709 -26.54473,3.24249 -38.1277,11.64309 -5.38312,3.9041 -9.03651,10.1915 -16.05377,14.5538 -6.84158,4.253 -35.89554,20.0483 -40.13443,26.1968 -0.43543,0.6316 -1.61548,5.5378 -2.00672,5.8215 -5.13033,3.7208 -17.37276,6.5287 -22.07395,11.643 -22.77299,24.7743 4.2692,1.8169 -10.0336,8.7323 -1.96503,0.9501 -10.85568,19.8494 -12.04033,23.2861 -0.65628,1.9039 -1.10192,13.8976 -2.00672,14.5538 -1.19658,0.8678 -3.06747,-1.3722 -4.01345,0 -1.95018,2.8287 -0.47687,8.3144 -2.00672,11.643 -1.47582,3.2111 -4.83483,5.2936 -6.02016,8.7323 -0.59829,1.7356 0.94598,4.4494 0,5.8215 -1.05764,1.5341 -3.18377,1.1056 -4.01344,2.9108 -1.11313,2.4219 1.41896,6.674 0,8.7322 -2.29238,3.3251 -6.11015,8.8628 -8.02689,11.6431 -0.66891,0.9702 -1.33782,7.762 -2.00672,8.7322 -0.47299,0.6861 -1.70758,-0.8678 -2.00672,0 -3.09712,8.9848 -1.02646,10.2212 -6.02017,17.4646 -0.94598,1.3721 0.59829,4.0859 0,5.8215 -3.04381,8.8301 -8.99652,14.456 -12.04033,23.2861 -13.81665,40.0822 -26.32014,55.5295 -50.16805,78.5905 -4.44531,4.2986 -20.067211,18.9465 -20.067211,14.5538"
       id="path3905"
       inkscape:connector-curvature="0" />
    <path
       style="fill:none;stroke:#443aff;stroke-width:80;stroke-linecap:butt;stroke-linejoin:miter;stroke-miterlimit:4;stroke-opacity:1;stroke-dasharray:none"
       d="m -786.56843,-104.20162 c 12.86919,-15.11118 24.89594,-30.86348 31.18286,-49.74052 0.82175,-2.46734 3.3168,-3.23481 3.89786,-5.85182 0.41087,-1.85052 -0.72072,-4.22883 0,-5.85183 0.80579,-1.81457 2.87068,-1.38382 3.89786,-2.92591 0.73266,-1.09995 3.88534,-14.62017 3.89786,-14.62956 1.16212,-0.87235 2.73574,0.87233 3.89785,0 1.16212,-0.87235 -0.58105,-4.10716 0,-5.85183 1.84976,-5.55406 5.94148,-7.52803 7.79572,-11.70365 3.89786,-8.77775 -1.94893,-2.92591 0,-8.77775 1.61107,-4.83738 4.01666,-3.28263 5.84678,-8.77774 1.35909,-4.08076 0.58985,-10.54879 1.94894,-14.62956 0.82173,-2.46735 3.07611,-3.38448 3.89785,-5.85183 3.68883,-11.07602 1.28704,-16.56178 7.79572,-26.33321 1.08125,-1.62327 1.1055,-15.02303 1.94893,-17.55548 0.64964,-1.95061 3.24821,-0.9753 3.89785,-2.92591 1.29387,-3.88498 0.65506,-10.74459 1.94893,-14.62957 0.29053,-0.87233 1.29929,0 1.94893,0 0.64965,-1.95061 1.59661,-3.73609 1.94893,-5.85182 3.22216,-19.34958 11.28841,-36.2121 15.59143,-55.59236 1.33381,-6.00736 4.82282,-8.4805 5.84679,-14.62956 0.31512,-1.89236 -0.58106,-4.10715 0,-5.85183 6.34541,-19.05266 1.9532,5.83257 5.84678,-11.70365 2.89437,-13.03591 8.22859,-25.03196 11.69358,-38.03687 1.07899,-4.04973 2.97912,-7.56579 3.89784,-11.70365 0.41088,-1.85051 -0.91872,-4.47253 0,-5.85182 0.91874,-1.37929 2.73576,0.87233 3.89787,0 1.69561,-1.27281 0.79855,-15.82844 1.94893,-17.55548 0.91873,-1.37929 2.73575,0.87233 3.89786,0 2.76796,-2.07777 6.8089,-18.96281 7.79572,-23.4073 2.10092,-9.46233 17.55057,-32.23105 19.48929,-40.96279 0.41087,-1.85051 -0.58107,-4.10715 0,-5.85183 0.29052,-0.87234 1.36785,0.43617 1.94892,0 4.09496,-3.07386 -0.0379,-5.79497 1.94893,-8.77774 1.19737,-1.79759 4.54164,-1.93299 5.84679,-5.85182 6.14291,-18.44463 13.81212,-29.51378 23.38715,-43.8887 1.72165,-2.58471 10.19279,-22.28075 11.69356,-23.4073 1.16212,-0.87235 2.73575,0.87234 3.89786,0 0.65787,-0.49383 7.27016,-13.39126 9.74465,-14.62956 10.01553,-5.01209 5.98664,-5.95682 13.6425,-11.70367 9.36985,-7.03343 19.08994,-5.85182 31.18286,-5.85182 9.29019,0 18.52519,-0.36184 27.28501,2.92591 5.54354,2.08063 12.47188,10.82494 17.54035,14.62958 1.16212,0.87233 2.97913,-1.37929 3.89786,0 7.01785,10.53584 19.94623,14.11158 29.23392,23.4073 1.96961,1.97129 12.61228,13.08288 13.6425,14.62956 0.45937,0.68965 -0.54053,2.38491 0,2.92592 5.83373,5.83874 12.29172,6.74979 17.54037,14.62956 0.62595,0.93974 3.45757,8.44724 3.89785,8.77774 1.16212,0.87233 2.73575,-0.87234 3.89786,0 1.16212,0.87233 -0.91873,4.47253 0,5.85182 0.64964,0.9753 3.24821,4.87653 3.89786,5.85183 1.45264,2.18085 4.39414,0.74506 5.84678,2.92591 3.7573,5.64081 17.66671,26.39645 23.38715,29.25913 1.23262,0.61684 2.8168,-1.082 3.89786,0 1.20867,1.20972 0.92175,4.30974 1.94893,5.85183 1.00876,1.51444 6.78695,1.41148 7.79571,2.92591 5.88695,8.83804 -1.57887,-1.04629 9.74464,11.70365 1.03943,1.17037 -0.58105,4.10716 0,5.85183 4.05549,12.17695 -0.13453,-3.1279 3.89787,2.92591 2.37599,3.56707 0.678,11.40694 3.89785,14.62957 6.36149,6.36697 12.7645,16.23733 17.54036,23.40731 0.91875,1.37929 -0.91873,4.47253 0,5.85182 1.92808,2.89461 7.0936,6.66959 7.79572,8.77774 0.58106,1.74467 -0.72071,4.22882 0,5.85183 0.80577,1.81457 3.09207,1.11133 3.89785,2.92591 0.72073,1.62301 -0.58106,4.10714 0,5.85183 1.55915,4.68145 6.23658,7.02219 7.79572,11.70365 2.40006,7.20638 -5.65722,-2.64132 1.94893,8.77774 1.27768,1.91817 4.87038,4.38594 5.84679,5.85182 0.64964,0.9753 1.29928,7.80244 1.94892,8.77774 0.45937,0.68964 1.6584,-0.87234 1.94893,0 0.58106,1.74468 -0.58106,4.10715 0,5.85183 0.75366,2.26294 6.29188,4.26234 7.79572,8.77773 0.58105,1.74468 -0.91874,4.47254 0,5.85183 8.39759,12.60725 16.52891,24.81475 23.38714,35.11096 1.45265,2.18084 0.80938,6.21154 1.94893,8.77774 0.50495,1.13711 12.94238,19.4303 13.6425,20.48139 1.9651,2.95018 1.53853,11.08753 3.89786,14.62957 1.79063,2.68825 6.60362,9.26049 7.79571,14.62956 0.41088,1.85051 -0.58105,4.10715 0,5.85183 0.58106,1.74468 2.97913,-1.37929 3.89786,0 0.51426,0.77205 1.92252,11.68383 1.94893,11.70365 1.16212,0.87233 2.97913,-1.37929 3.89786,0 0.91873,1.37929 -0.58106,4.10714 0,5.85182 1.04752,3.14527 4.5475,2.92592 5.84678,5.85183 3.67704,8.28046 4.10055,14.93385 7.79572,20.48139 0.91873,1.37929 -0.58106,4.10715 0,5.85183 4.05549,12.17695 -0.13454,-3.1279 3.89786,2.92591 4.71677,7.08126 7.09746,34.06267 13.6425,43.8887 10.12462,15.20001 7.54137,43.12499 13.6425,61.44417 1.6422,4.93085 0.23319,12.40381 1.94893,17.555477 4.05549,12.17695 -0.13454,-3.127907 3.89786,2.92591 0.45937,0.68965 -0.64964,2.92591 0,2.92591 2.05784,0 37.42753,76.21193 38.18357,73.94187"
       id="path3907"
       inkscape:connector-curvature="0"
       sodipodi:nodetypes="csssscssssssssssscssssssssssssscsssssssssssssscscssssssssssssssssssssssssssssssssscsssssssssssc" />
    <path
       style="fill:none;stroke:#000000;stroke-width:50;stroke-linecap:butt;stroke-linejoin:miter;stroke-miterlimit:4;stroke-opacity:1;stroke-dasharray:none"
       d="m 734.51074,614.79291 c -0.39989,29.3443 -19.55867,49.4431 -24.08066,75.6798 -0.32446,1.8825 0.5983,4.0858 0,5.8215 -2.02177,5.8652 -7.29179,12.1618 -10.0336,17.4645 -5.32079,10.2905 -11.55699,24.0581 -16.05378,34.9291 -4.89634,11.837 1.59172,6.4235 -6.02016,17.4646 -3.41077,4.9473 -8.27377,7.2723 -12.04033,11.643 -5.0056,5.8085 -20.54098,25.1726 -24.08066,32.0184 -0.89743,1.7356 -0.81014,4.5198 -2.00672,5.8215 -2.88174,3.135 -7.03641,2.9232 -10.03361,5.8215 -2.3613,2.2834 -3.74981,6.2624 -6.02016,8.7323 -10.46807,11.388 -26.33039,13.5305 -38.12771,20.3753 -0.87832,0.5096 -1.33782,1.9405 -2.00672,2.9108 -3.34454,1.9405 -6.57003,4.3861 -10.03361,5.8215 -4.45084,1.8445 -4.00011,-2.9301 -8.02689,2.9107 -1.05763,1.5341 -0.81014,4.5198 -2.00672,5.8215 -2.99171,3.2547 -16.5456,9.4457 -18.06049,11.6431 -3.8102,5.5267 -8.06762,11.6627 -14.04705,14.5538 -1.90375,0.9204 -4.07336,-0.706 -6.02017,0 -7.97734,2.8928 -16.20554,13.6569 -24.08066,17.4645 -5.36887,2.5959 -12.50813,0.8974 -18.06049,2.9108 -3.63205,-1.7544 -3.73215,4.7152 -6.02016,5.8215 -2.53833,1.2273 -5.43115,-0.9413 -8.02689,0 -15.37319,5.5747 -60.94626,10.8449 -78.26214,5.8215 -14.46429,-4.1961 -29.84497,-11.537 -44.14788,-17.4645 -12.1784,-5.0471 -26.54473,-3.2425 -38.1277,-11.6431 -5.38312,-3.9041 -9.03651,-10.1915 -16.05377,-14.5538 -6.84158,-4.253 -35.89554,-20.0483 -40.13443,-26.1968 -0.43543,-0.6316 -1.61548,-5.5378 -2.00672,-5.8215 -5.13033,-3.7208 -17.37276,-6.5287 -22.07395,-11.643 -22.77299,-24.7743 4.2692,-1.8169 -10.0336,-8.7323 -1.96503,-0.9501 -10.85568,-19.8494 -12.04033,-23.2861 -0.65628,-1.9039 -1.10192,-13.8976 -2.00672,-14.5538 -1.19658,-0.8678 -3.06747,1.3722 -4.01345,0 -1.95018,-2.8287 -0.47687,-8.3144 -2.00672,-11.643 -1.47582,-3.2111 -4.83483,-5.2936 -6.02016,-8.7323 -0.59829,-1.7356 0.94598,-4.4494 0,-5.8215 -1.05764,-1.5341 -3.18377,-1.1056 -4.01344,-2.9108 -1.11313,-2.4219 1.41896,-6.674 0,-8.7322 -2.29238,-3.3251 -6.11015,-8.8628 -8.02689,-11.6431 -0.66891,-0.9702 -1.33782,-7.762 -2.00672,-8.7322 -0.47299,-0.6861 -1.70758,0.8678 -2.00672,0 -3.09712,-8.9848 -1.02646,-10.2212 -6.02017,-17.4646 -0.94598,-1.3721 0.59829,-4.0859 0,-5.8215 -3.04381,-8.8301 -8.99651,-14.456 -12.04032,-23.2861 -13.81665,-40.0822 -26.32014,-55.5295 -50.16806,-78.5905 -4.44531,-4.2986 -20.067207,-18.9465 -20.067207,-14.5538"
       id="path3905-5"
       inkscape:connector-curvature="0" />
    <path
       sodipodi:type="arc"
       style="fill:#ff2a2a;fill-opacity:1;stroke:#bc0000;stroke-width:1;stroke-miterlimit:4;stroke-opacity:1;stroke-dasharray:8, 1;stroke-dashoffset:1.2;filter:url(#filter3809)"
       id="path3033"
       sodipodi:cx="327.14285"
       sodipodi:cy="332.36218"
       sodipodi:rx="90"
       sodipodi:ry="48.57143"
       d="m 417.14285,332.36218 a 90,48.57143 0 1 1 -180,0 90,48.57143 0 1 1 180,0 z"
       transform="matrix(2.3384889,0,0,4.2273627,-326.4485,-785.51048)" />
  </g>
</svg>
