<?xml version="1.0" encoding="UTF-8" standalone="no"?>
<!-- Created with Inkscape (http://www.inkscape.org/) -->

<svg
   xmlns:osb="http://www.openswatchbook.org/uri/2009/osb"
   xmlns:dc="http://purl.org/dc/elements/1.1/"
   xmlns:cc="http://creativecommons.org/ns#"
   xmlns:rdf="http://www.w3.org/1999/02/22-rdf-syntax-ns#"
   xmlns:svg="http://www.w3.org/2000/svg"
   xmlns="http://www.w3.org/2000/svg"
   xmlns:xlink="http://www.w3.org/1999/xlink"
   xmlns:sodipodi="http://sodipodi.sourceforge.net/DTD/sodipodi-0.dtd"
   xmlns:inkscape="http://www.inkscape.org/namespaces/inkscape"
   width="800"
   height="800"
   id="svg2"
   version="1.1"
   inkscape:version="0.48.4 r9939"
   sodipodi:docname="light.svg">
  <defs
     id="defs4">
    <linearGradient
       id="linearGradient3823"
       osb:paint="solid">
      <stop
         style="stop-color:#0000b5;stop-opacity:1;"
         offset="0"
         id="stop3825" />
    </linearGradient>
    <filter
       inkscape:collect="always"
       id="filter3809"
       color-interpolation-filters="sRGB">
      <feGaussianBlur
         inkscape:collect="always"
         stdDeviation="3.9593924"
         id="feGaussianBlur3811" />
    </filter>
    <linearGradient
       inkscape:collect="always"
       xlink:href="#linearGradient3823"
       id="linearGradient3827"
       x1="224.31377"
       y1="332.36218"
       x2="429.97195"
       y2="332.36218"
       gradientUnits="userSpaceOnUse" />
  </defs>
  <sodipodi:namedview
     id="base"
     pagecolor="#ffffff"
     bordercolor="#666666"
     borderopacity="1.0"
     inkscape:pageopacity="0.0"
     inkscape:pageshadow="2"
     inkscape:zoom="0.35"
     inkscape:cx="350"
     inkscape:cy="520"
     inkscape:document-units="px"
     inkscape:current-layer="layer1"
     showgrid="false"
     inkscape:window-width="1855"
     inkscape:window-height="1056"
     inkscape:window-x="65"
     inkscape:window-y="24"
     inkscape:window-maximized="1" />
  <metadata
     id="metadata7">
    <rdf:RDF>
      <cc:Work
         rdf:about="">
        <dc:format>image/svg+xml</dc:format>
        <dc:type
           rdf:resource="http://purl.org/dc/dcmitype/StillImage" />
        <dc:title></dc:title>
      </cc:Work>
    </rdf:RDF>
  </metadata>
  <g
     inkscape:label="Ebene 1"
     inkscape:groupmode="layer"
     id="layer1"
     transform="translate(0,-252.36218)">
    <path
       sodipodi:type="arc"
       style="fill:#ffff00;fill-opacity:1;stroke:#f7e3f4;stroke-width:1.19299996;stroke-miterlimit:4;stroke-opacity:1;stroke-dasharray:none;stroke-dashoffset:1.2"
       id="path3023"
       sodipodi:cx="435.71429"
       sodipodi:cy="702.85712"
       sodipodi:rx="307.14285"
       sodipodi:ry="288.57144"
       d="m 742.85715,702.85712 a 307.14285,288.57144 0 1 1 -614.28571,0 307.14285,288.57144 0 1 1 614.28571,0 z"
       transform="matrix(0.95820416,0,0,0.97531631,5.353901,-43.145858)" />
    <path
       style="fill:none;stroke:#000000;stroke-width:50;stroke-linecap:butt;stroke-linejoin:miter;stroke-miterlimit:4;stroke-opacity:1;stroke-dasharray:none"
       d="m 728.79646,660.7684 c -0.39989,-29.3443 -19.55867,-49.4431 -24.08066,-75.6798 -0.32446,-1.8825 0.5983,-4.0858 0,-5.8215 -2.02177,-5.8652 -7.29179,-12.1618 -10.0336,-17.4645 -5.32079,-10.2905 -11.55699,-24.0581 -16.05378,-34.9291 -4.89634,-11.837 1.59172,-6.4235 -6.02016,-17.4646 -3.41077,-4.9473 -8.27377,-7.2723 -12.04033,-11.643 -5.0056,-5.8085 -20.54098,-25.1726 -24.08066,-32.0184 -0.89743,-1.7356 -0.81014,-4.5198 -2.00672,-5.8215 -2.88174,-3.135 -7.03641,-2.9232 -10.03361,-5.8215 -2.3613,-2.2834 -3.74981,-6.2624 -6.02016,-8.7323 -10.46807,-11.388 -26.33039,-13.5305 -38.12771,-20.3753 -0.87832,-0.5096 -1.33782,-1.9405 -2.00672,-2.9108 -3.34454,-1.9405 -6.57003,-4.3861 -10.03361,-5.8215 -4.45084,-1.8445 -4.00011,2.9301 -8.02689,-2.9107 -1.05763,-1.5341 -0.81014,-4.5198 -2.00672,-5.8215 -2.99171,-3.2547 -16.5456,-9.4457 -18.06049,-11.6431 -3.8102,-5.5267 -8.06762,-11.6627 -14.04705,-14.5538 -1.90375,-0.9204 -4.07336,0.706 -6.02017,0 -7.97734,-2.8928 -16.20554,-13.65689 -24.08066,-17.46449 -5.36887,-2.5959 -12.50813,-0.8974 -18.06049,-2.9108 -3.63205,1.7544 -3.73215,-4.7152 -6.02016,-5.8215 -2.53833,-1.2273 -5.43115,0.9413 -8.02689,0 -15.37319,-5.5747 -60.94626,-10.8449 -78.26214,-5.8215 -14.46429,4.1961 -29.84497,11.537 -44.14788,17.4645 -12.1784,5.04709 -26.54473,3.24249 -38.1277,11.64309 -5.38312,3.9041 -9.03651,10.1915 -16.05377,14.5538 -6.84158,4.253 -35.89554,20.0483 -40.13443,26.1968 -0.43543,0.6316 -1.61548,5.5378 -2.00672,5.8215 -5.13033,3.7208 -17.37276,6.5287 -22.07395,11.643 -22.77299,24.7743 4.2692,1.8169 -10.0336,8.7323 -1.96503,0.9501 -10.85568,19.8494 -12.04033,23.2861 -0.65628,1.9039 -1.10192,13.8976 -2.00672,14.5538 -1.19658,0.8678 -3.06747,-1.3722 -4.01345,0 -1.95018,2.8287 -0.47687,8.3144 -2.00672,11.643 -1.47582,3.2111 -4.83483,5.2936 -6.02016,8.7323 -0.59829,1.7356 0.94598,4.4494 0,5.8215 -1.05764,1.5341 -3.18377,1.1056 -4.01344,2.9108 -1.11313,2.4219 1.41896,6.674 0,8.7322 -2.29238,3.3251 -6.11015,8.8628 -8.02689,11.6431 -0.66891,0.9702 -1.33782,7.762 -2.00672,8.7322 -0.47299,0.6861 -1.70758,-0.8678 -2.00672,0 -3.09712,8.9848 -1.02646,10.2212 -6.02017,17.4646 -0.94598,1.3721 0.59829,4.0859 0,5.8215 -3.04381,8.8301 -8.99652,14.456 -12.04033,23.2861 -13.81665,40.0822 -26.32014,55.5295 -50.16805,78.5905 -4.445309,4.2986 -20.06721,18.9465 -20.06721,14.5538"
       id="path3905"
       inkscape:connector-curvature="0" />
    <path
       style="fill:none;stroke:#000000;stroke-width:50;stroke-linecap:butt;stroke-linejoin:miter;stroke-miterlimit:4;stroke-opacity:1;stroke-dasharray:none"
       d="m 720.22503,643.36434 c -0.39989,29.3443 -19.55867,49.4431 -24.08066,75.6798 -0.32446,1.8825 0.5983,4.0858 0,5.8215 -2.02177,5.8652 -7.29179,12.1618 -10.0336,17.4645 -5.32079,10.2905 -11.55699,24.0581 -16.05378,34.9291 -4.89634,11.837 1.59172,6.4235 -6.02016,17.4646 -3.41077,4.9473 -8.27377,7.2723 -12.04033,11.643 -5.0056,5.8085 -20.54098,25.1726 -24.08066,32.0184 -0.89743,1.7356 -0.81014,4.5198 -2.00672,5.8215 -2.88174,3.135 -7.03641,2.9232 -10.03361,5.8215 -2.3613,2.2834 -3.74981,6.2624 -6.02016,8.7323 -10.46807,11.388 -26.33039,13.5305 -38.12771,20.3753 -0.87832,0.5096 -1.33782,1.9405 -2.00672,2.9108 -3.34454,1.9405 -6.57003,4.3861 -10.03361,5.8215 -4.45084,1.8445 -4.00011,-2.9301 -8.02689,2.9107 -1.05763,1.5341 -0.81014,4.5198 -2.00672,5.8215 -2.99171,3.2547 -16.5456,9.4457 -18.06049,11.6431 -3.8102,5.5267 -8.06762,11.6627 -14.04705,14.5538 -1.90375,0.9204 -4.07336,-0.706 -6.02017,0 -7.97734,2.8928 -16.20554,13.6569 -24.08066,17.4645 -5.36887,2.5959 -12.50813,0.8974 -18.06049,2.9108 -3.63205,-1.7544 -3.73215,4.7152 -6.02016,5.8215 -2.53833,1.2273 -5.43115,-0.9413 -8.02689,0 -15.37319,5.5747 -60.94626,10.8449 -78.26214,5.8215 -14.46429,-4.1961 -29.84497,-11.537 -44.14788,-17.4645 -12.1784,-5.0471 -26.54473,-3.2425 -38.1277,-11.6431 -5.38312,-3.9041 -9.03651,-10.1915 -16.05377,-14.5538 -6.84158,-4.253 -35.89554,-20.0483 -40.13443,-26.1968 -0.43543,-0.6316 -1.61548,-5.5378 -2.00672,-5.8215 -5.13033,-3.7208 -17.37276,-6.5287 -22.07395,-11.643 -22.77299,-24.7743 4.2692,-1.8169 -10.0336,-8.7323 -1.96503,-0.9501 -10.85568,-19.8494 -12.04033,-23.2861 -0.65628,-1.9039 -1.10192,-13.8976 -2.00672,-14.5538 -1.19658,-0.8678 -3.06747,1.3722 -4.01345,0 -1.95018,-2.8287 -0.47687,-8.3144 -2.00672,-11.643 -1.47582,-3.2111 -4.83483,-5.2936 -6.02016,-8.7323 -0.59829,-1.7356 0.94598,-4.4494 0,-5.8215 -1.05764,-1.5341 -3.18377,-1.1056 -4.01344,-2.9108 -1.11313,-2.4219 1.41896,-6.674 0,-8.7322 -2.29238,-3.3251 -6.11015,-8.8628 -8.02689,-11.6431 -0.66891,-0.9702 -1.33782,-7.762 -2.00672,-8.7322 -0.47299,-0.6861 -1.70758,0.8678 -2.00672,0 -3.09712,-8.9848 -1.02646,-10.2212 -6.02017,-17.4646 -0.94598,-1.3721 0.59829,-4.0859 0,-5.8215 -3.04381,-8.8301 -8.99651,-14.456 -12.04032,-23.2861 -13.81665,-40.0822 -26.32014,-55.5295 -50.168061,-78.5905 -4.44531,-4.2986 -20.06721,-18.9465 -20.06721,-14.5538"
       id="path3905-5"
       inkscape:connector-curvature="0" />
    <path
       sodipodi:type="arc"
       style="fill:url(#linearGradient3827);fill-opacity:1;stroke:#bc0000;stroke-width:1;stroke-miterlimit:4;stroke-opacity:1;stroke-dasharray:8, 1;stroke-dashoffset:1.2;filter:url(#filter3809)"
       id="path3033"
       sodipodi:cx="327.14285"
       sodipodi:cy="332.36218"
       sodipodi:rx="90"
       sodipodi:ry="48.57143"
       d="m 417.14285,332.36218 a 90,48.57143 0 1 1 -180,0 90,48.57143 0 1 1 180,0 z"
       transform="matrix(1.3976683,0,0,2.3201934,-58.665764,-114.49666)" />
  </g>
</svg>
