<?xml version="1.0" encoding="UTF-8" standalone="no"?>
<!-- Created with Inkscape (http://www.inkscape.org/) -->

<svg
   xmlns:osb="http://www.openswatchbook.org/uri/2009/osb"
   xmlns:dc="http://purl.org/dc/elements/1.1/"
   xmlns:cc="http://creativecommons.org/ns#"
   xmlns:rdf="http://www.w3.org/1999/02/22-rdf-syntax-ns#"
   xmlns:svg="http://www.w3.org/2000/svg"
   xmlns="http://www.w3.org/2000/svg"
   xmlns:xlink="http://www.w3.org/1999/xlink"
   xmlns:sodipodi="http://sodipodi.sourceforge.net/DTD/sodipodi-0.dtd"
   xmlns:inkscape="http://www.inkscape.org/namespaces/inkscape"
   width="64"
   height="64"
   id="svg2"
   version="1.1"
   inkscape:version="0.48.4 r9939"
   sodipodi:docname="FreeCAD_Ref.svg">
  <defs
     id="defs4">
    <linearGradient
       id="linearGradient3823"
       osb:paint="solid">
      <stop
         style="stop-color:#0000b5;stop-opacity:1;"
         offset="0"
         id="stop3825" />
    </linearGradient>
    <filter
       inkscape:collect="always"
       id="filter3809"
       color-interpolation-filters="sRGB">
      <feGaussianBlur
         inkscape:collect="always"
         stdDeviation="3.9593924"
         id="feGaussianBlur3811" />
    </filter>
    <linearGradient
       inkscape:collect="always"
       xlink:href="#linearGradient3823"
       id="linearGradient3827"
       x1="224.31377"
       y1="332.36218"
       x2="429.97195"
       y2="332.36218"
       gradientUnits="userSpaceOnUse" />
  </defs>
  <sodipodi:namedview
     id="base"
     pagecolor="#ffffff"
     bordercolor="#666666"
     borderopacity="1.0"
     inkscape:pageopacity="0.0"
     inkscape:pageshadow="2"
     inkscape:zoom="1.979899"
     inkscape:cx="116.14969"
     inkscape:cy="97.161513"
     inkscape:document-units="px"
     inkscape:current-layer="ALL"
     showgrid="false"
     inkscape:window-width="1280"
     inkscape:window-height="1000"
     inkscape:window-x="1920"
     inkscape:window-y="24"
     inkscape:window-maximized="1" />
  <metadata
     id="metadata7">
    <rdf:RDF>
      <cc:Work
         rdf:about="">
        <dc:format>image/svg+xml</dc:format>
        <dc:type
           rdf:resource="http://purl.org/dc/dcmitype/StillImage" />
        <dc:title />
      </cc:Work>
    </rdf:RDF>
  </metadata>
  <g
     inkscape:label="Ebene 1"
     inkscape:groupmode="layer"
     id="layer1"
     transform="translate(0,-988.36218)">
    <path
       sodipodi:type="arc"
       style="fill:#ffff00;fill-opacity:1;stroke:#f7e3f4;stroke-width:1.19299996;stroke-miterlimit:4;stroke-opacity:1;stroke-dasharray:none;stroke-dashoffset:1.2"
       id="path3023"
       sodipodi:cx="435.71429"
       sodipodi:cy="702.85712"
       sodipodi:rx="307.14285"
       sodipodi:ry="288.57144"
       d="m 742.85715,702.85712 a 307.14285,288.57144 0 1 1 -614.28571,0 307.14285,288.57144 0 1 1 614.28571,0 z"
       transform="matrix(0.05896545,0,0,0.0590706,8.4737315,977.31634)" />
    <path
       style="fill:none;stroke:#000000;stroke-width:3.05247927;stroke-linecap:butt;stroke-linejoin:miter;stroke-miterlimit:4;stroke-opacity:1;stroke-dasharray:none"
       d="m 52.992551,1019.9493 c -0.02461,-1.7772 -1.203592,-2.9945 -1.481866,-4.5836 -0.01994,-0.114 0.03681,-0.2474 0,-0.3526 -0.124411,-0.3552 -0.448717,-0.7366 -0.61744,-1.0577 -0.327428,-0.6233 -0.71119,-1.4571 -0.987909,-2.1155 -0.301309,-0.7169 0.09795,-0.3891 -0.370463,-1.0578 -0.209895,-0.2996 -0.509148,-0.4404 -0.740933,-0.7051 -0.308034,-0.3518 -1.264041,-1.5246 -1.481861,-1.9392 -0.05521,-0.1052 -0.04986,-0.2738 -0.123488,-0.3526 -0.177338,-0.1899 -0.433003,-0.1771 -0.617445,-0.3526 -0.145311,-0.1383 -0.230755,-0.3793 -0.370464,-0.5289 -0.644179,-0.6897 -1.620305,-0.8195 -2.346282,-1.234 -0.05407,-0.031 -0.08233,-0.1176 -0.123493,-0.1763 -0.20581,-0.1175 -0.404303,-0.2657 -0.61744,-0.3526 -0.273892,-0.1117 -0.246155,0.1775 -0.493957,-0.1763 -0.06508,-0.093 -0.04986,-0.2737 -0.123488,-0.3526 -0.184101,-0.1971 -1.01817,-0.5721 -1.111397,-0.7051 -0.234469,-0.3348 -0.496459,-0.7064 -0.864416,-0.8815 -0.117152,-0.056 -0.250668,0.043 -0.370468,0 -0.490905,-0.1752 -0.997248,-0.8271 -1.481862,-1.0577 -0.330387,-0.1573 -0.769719,-0.054 -1.111397,-0.1763 -0.223507,0.1062 -0.229667,-0.2856 -0.370466,-0.3526 -0.156202,-0.074 -0.334219,0.057 -0.493954,0 -0.946027,-0.3377 -3.750478,-0.6569 -4.816053,-0.3526 -0.890096,0.2541 -1.836584,0.6987 -2.716749,1.0577 -0.749428,0.3057 -1.633495,0.1964 -2.346281,0.7052 -0.331264,0.2365 -0.556084,0.6173 -0.987909,0.8815 -0.421013,0.2576 -2.20892,1.2142 -2.469771,1.5866 -0.0268,0.038 -0.09941,0.3354 -0.123488,0.3526 -0.315708,0.2253 -1.069076,0.3954 -1.358374,0.7051 -1.401393,1.5005 0.262715,0.1101 -0.617443,0.5289 -0.120923,0.058 -0.668031,1.2022 -0.740931,1.4104 -0.04039,0.1153 -0.06781,0.8417 -0.123489,0.8814 -0.07363,0.053 -0.188764,-0.083 -0.246977,0 -0.120009,0.1713 -0.02934,0.5036 -0.123489,0.7052 -0.09082,0.1945 -0.297523,0.3206 -0.370465,0.5289 -0.03682,0.1051 0.05821,0.2694 0,0.3525 -0.06508,0.093 -0.195921,0.067 -0.246977,0.1763 -0.0685,0.1467 0.08732,0.4042 0,0.5289 -0.141067,0.2014 -0.376003,0.5368 -0.493954,0.7052 -0.04116,0.059 -0.08233,0.4701 -0.123489,0.5288 -0.0291,0.042 -0.10508,-0.053 -0.123488,0 -0.190589,0.5442 -0.06317,0.6191 -0.370466,1.0578 -0.05821,0.083 0.03682,0.2475 0,0.3526 -0.187308,0.5348 -0.553623,0.8755 -0.740932,1.4103 -0.850241,2.4276 -1.619674,3.3632 -3.087214,4.7599 -0.273553,0.2603 -1.234885,1.1475 -1.234885,0.8815"
       id="path3905"
       inkscape:connector-curvature="0" />
    <path
       style="fill:none;stroke:#000000;stroke-width:3.05247927;stroke-linecap:butt;stroke-linejoin:miter;stroke-miterlimit:4;stroke-opacity:1;stroke-dasharray:none"
       d="m 52.465085,1018.8952 c -0.02461,1.7773 -1.203592,2.9946 -1.48186,4.5836 -0.01994,0.114 0.03681,0.2475 0,0.3526 -0.124417,0.3552 -0.448717,0.7366 -0.617446,1.0577 -0.327428,0.6233 -0.711185,1.4571 -0.987909,2.1155 -0.301304,0.717 0.09795,0.3891 -0.370463,1.0578 -0.209889,0.2996 -0.509148,0.4405 -0.740933,0.7052 -0.308028,0.3518 -1.264041,1.5246 -1.481861,1.9392 -0.05521,0.1051 -0.04986,0.2737 -0.123488,0.3526 -0.177338,0.1898 -0.433003,0.177 -0.617445,0.3525 -0.145305,0.1383 -0.230755,0.3793 -0.370464,0.5289 -0.644179,0.6897 -1.620305,0.8195 -2.346282,1.2341 -0.05407,0.031 -0.08233,0.1175 -0.123488,0.1763 -0.205815,0.1175 -0.404303,0.2656 -0.617445,0.3525 -0.273892,0.1118 -0.246155,-0.1774 -0.493952,0.1763 -0.06508,0.093 -0.04985,0.2738 -0.123488,0.3526 -0.184106,0.1971 -1.018175,0.5721 -1.111396,0.7052 -0.23447,0.3347 -0.496465,0.7063 -0.864422,0.8814 -0.117152,0.056 -0.250664,-0.043 -0.370466,0 -0.490905,0.1752 -0.997248,0.8272 -1.481862,1.0578 -0.330387,0.1572 -0.769719,0.054 -1.111397,0.1763 -0.223507,-0.1063 -0.229667,0.2856 -0.370465,0.3526 -0.156203,0.074 -0.33422,-0.057 -0.493955,0 -0.946027,0.3376 -3.750478,0.6568 -4.816053,0.3525 -0.890096,-0.2541 -1.836584,-0.6987 -2.716749,-1.0577 -0.749427,-0.3057 -1.633495,-0.1964 -2.346282,-0.7052 -0.331263,-0.2364 -0.556083,-0.6172 -0.987907,-0.8814 -0.421014,-0.2576 -2.208921,-1.2143 -2.469771,-1.5867 -0.0268,-0.038 -0.09941,-0.3354 -0.123489,-0.3525 -0.315707,-0.2254 -1.069075,-0.3955 -1.358375,-0.7052 -1.401392,-1.5005 0.262716,-0.11 -0.617442,-0.5289 -0.120923,-0.058 -0.668031,-1.2022 -0.740931,-1.4103 -0.04039,-0.1153 -0.06781,-0.8417 -0.123489,-0.8815 -0.07363,-0.053 -0.188764,0.083 -0.246977,0 -0.120009,-0.1713 -0.02934,-0.5035 -0.123489,-0.7051 -0.09082,-0.1945 -0.297523,-0.3206 -0.370465,-0.5289 -0.03682,-0.1051 0.05821,-0.2695 0,-0.3526 -0.06508,-0.093 -0.195921,-0.067 -0.246977,-0.1763 -0.0685,-0.1467 0.08732,-0.4042 0,-0.5289 -0.141067,-0.2014 -0.376003,-0.5367 -0.493954,-0.7051 -0.04116,-0.059 -0.08233,-0.4701 -0.123489,-0.5289 -0.0291,-0.042 -0.10508,0.053 -0.123488,0 -0.190589,-0.5442 -0.06317,-0.6191 -0.370466,-1.0578 -0.05821,-0.083 0.03682,-0.2474 0,-0.3525 -0.187309,-0.5348 -0.553623,-0.8756 -0.740931,-1.4104 -0.850241,-2.4276 -1.619674,-3.3632 -3.087215,-4.7599 -0.273553,-0.2603 -1.234885,-1.1475 -1.234885,-0.8814"
       id="path3905-5"
       inkscape:connector-curvature="0" />
    <path
       sodipodi:type="arc"
       style="fill:url(#linearGradient3827);fill-opacity:1;stroke:#bc0000;stroke-width:1;stroke-miterlimit:4;stroke-opacity:1;stroke-dasharray:8, 1;stroke-dashoffset:1.2;filter:url(#filter3809)"
       id="path3033"
       sodipodi:cx="327.14285"
       sodipodi:cy="332.36218"
       sodipodi:rx="90"
       sodipodi:ry="48.57143"
       d="m 417.14285,332.36218 a 90,48.57143 0 1 1 -180,0 90,48.57143 0 1 1 180,0 z"
       transform="matrix(0.08600896,0,0,0.14052386,4.5341245,972.99494)" />
  </g>
</svg>
